<?xml version="1.0" encoding="UTF-8"?><svg id="Layer_34" xmlns="http://www.w3.org/2000/svg" viewBox="0 0 64 64"><path d="m12,49h2V3c-3.314,0-6,2.686-6,6v44c0-2.209,1.791-4,4-4Z" style="fill:#8b5e3c;"/><rect x="14" y="3" width="42" height="46" style="fill:#a97c50;"/><path d="m14,49h42V7c0,23.196-18.804,42-42,42Z" style="fill:#8b5e3c;"/><path d="m55.817,49v8H11.817c-2.21,0-4-1.79-4-4s1.79-4,4-4h44Z" style="fill:#f1f2f2;"/><polygon points="33 29 37 29 37 19 43 19 43 15 37 15 37 9 33 9 33 15 27 15 27 19 33 19 33 29" style="fill:#f1f2f2;"/><polygon points="25 59 28 61 28 57 28 53 22 53 22 57 22 61 25 59" style="fill:#ffcd00;"/><path d="m56,2H14c-3.86,0-7,3.14-7,7v44c0,2.76,2.24,5,5,5h9v3c0,.37.2.71.53.88.32.18.72.16,1.02-.05l2.45-1.63,2.45,1.63c.16.11.36.17.55.17.16,0,.32-.04.47-.12.33-.17.53-.51.53-.88v-3h27c.55,0,1-.45,1-1V3c0-.55-.45-1-1-1ZM9,9c0-2.41,1.72-4.43,4-4.9v43.9h-1c-1.13,0-2.16.39-3,1.03V9Zm18,50.13l-1.45-.96c-.16-.11-.36-.17-.55-.17s-.39.06-.55.17l-1.45.96v-5.13h4v5.13Zm28-3.13h-26v-2h26v2Zm0-4H18c-.55,0-1,.45-1,1s.45,1,1,1h3v2h-9c-1.65,0-3-1.35-3-3s1.35-3,3-3h43v2Zm0-4H15V4h40v44Z" style="fill:#231f20;"/><path d="m14,52h-2c-.552,0-1,.448-1,1s.448,1,1,1h2c.552,0,1-.448,1-1s-.448-1-1-1Z" style="fill:#231f20;"/><path d="m27,20h5v9c0,.552.448,1,1,1h4c.552,0,1-.448,1-1v-9h5c.552,0,1-.448,1-1v-4c0-.552-.448-1-1-1h-5v-5c0-.552-.448-1-1-1h-4c-.552,0-1,.448-1,1v5h-5c-.552,0-1,.448-1,1v4c0,.552.448,1,1,1Zm1-4h5c.552,0,1-.448,1-1v-5h2v5c0,.552.448,1,1,1h5v2h-5c-.552,0-1,.448-1,1v9h-2v-9c0-.552-.448-1-1-1h-5v-2Z" style="fill:#231f20;"/><path d="m20,36h30c.552,0,1-.448,1-1s-.448-1-1-1h-30c-.552,0-1,.448-1,1s.448,1,1,1Z" style="fill:#231f20;"/><path d="m46,39h-22c-.552,0-1,.448-1,1s.448,1,1,1h22c.552,0,1-.448,1-1s-.448-1-1-1Z" style="fill:#231f20;"/></svg>