<?xml version="1.0" encoding="UTF-8"?><svg id="Layer_35" xmlns="http://www.w3.org/2000/svg" viewBox="0 0 64 64"><polygon points="18 31 18 57 5 57 5 39 18 31" style="fill:#c49a6c;"/><polygon points="18 27 5 35 5 39 18 31 18 27" style="fill:#ebbf00;"/><polygon points="59 39 59 57 46 57 46 31 59 39" style="fill:#c49a6c;"/><polygon points="59 39 59 35 46 27 46 31 59 39" style="fill:#ebbf00;"/><polygon points="46 23 46 57 18 57 18 23 32 15 46 23" style="fill:#a97c50;"/><polygon points="46 23 46 19 32 11 18 19 18 23 32 15 46 23" style="fill:#ffcd00;"/><rect x="3" y="57" width="58" height="4" style="fill:#6d6e71;"/><path d="m55,45.5c0-1.381-1.119-2.5-2.5-2.5s-2.5,1.119-2.5,2.5v5.5h5v-5.5Z" style="fill:#f1f2f2;"/><path d="m52.5,43c-1.381,0-2.5,1.119-2.5,2.5v2c0-1.381,1.119-2.5,2.5-2.5s2.5,1.119,2.5,2.5v-2c0-1.381-1.119-2.5-2.5-2.5Z" style="fill:#e6e7e8;"/><path d="m11.5,43c-1.381,0-2.5,1.119-2.5,2.5v5.5h5v-5.5c0-1.381-1.119-2.5-2.5-2.5Z" style="fill:#f1f2f2;"/><path d="m32,35c-4.418,0-8,3.582-8,8v14h16v-14c0-4.418-3.582-8-8-8Z" style="fill:#f1f2f2;"/><path d="m32,35c-4.418,0-8,3.582-8,8v3c0-4.418,3.582-8,8-8s8,3.582,8,8v-3c0-4.418-3.582-8-8-8Z" style="fill:#e6e7e8;"/><path d="m36,25c0-2.209-1.791-4-4-4v4h4Z" style="fill:#ff6243;"/><path d="m32,29c2.209,0,4-1.791,4-4h-4v4Z" style="fill:#ff9811;"/><path d="m32,29v-4h-4c0,2.209,1.791,4,4,4Z" style="fill:#ff6243;"/><path d="m32,21c-2.209,0-4,1.791-4,4h4v-4Z" style="fill:#ff9811;"/><path d="m11.55,43.05c-1.381,0-2.5,1.119-2.5,2.5v2c0-1.381,1.119-2.5,2.5-2.5s2.5,1.119,2.5,2.5v-2c0-1.381-1.119-2.5-2.5-2.5Z" style="fill:#e6e7e8;"/><path d="m61,56h-1v-21c0-.35-.18-.67-.48-.85l-12.52-7.71v-7.44c0-.36-.19-.69-.5-.87l-13.5-7.71v-4.42h2c.55,0,1-.45,1-1s-.45-1-1-1h-2v-1c0-.55-.45-1-1-1s-1,.45-1,1v1h-2c-.55,0-1,.45-1,1s.45,1,1,1h2v4.42l-13.5,7.71c-.31.18-.5.51-.5.87v7.44l-12.52,7.71c-.3.18-.48.5-.48.85v21h-1c-.55,0-1,.45-1,1v4c0,.55.45,1,1,1h58c.55,0,1-.45,1-1v-4c0-.55-.45-1-1-1Zm-14-27.21l11,6.77v1.65l-11-6.77v-1.65Zm0,4l11,6.77v16.44h-11v-23.21Zm-28-13.21l13-7.43,13,7.43v1.7l-12.5-7.15c-.16-.09-.33-.13-.5-.13s-.34.04-.5.13l-12.5,7.15v-1.7Zm0,4l13-7.43,13,7.43v32.42h-4v-13c0-4.96-4.04-9-9-9s-9,4.04-9,9v13h-4V23.58Zm20,19.42v13h-14v-13c0-3.86,3.14-7,7-7s7,3.14,7,7Zm-33-7.44l11-6.77v1.65l-11,6.77v-1.65Zm0,4l11-6.77v23.21H6v-16.44Zm54,20.44H4v-2h56v2Z" style="fill:#231f20;"/><path d="m52.5,42c-1.93,0-3.5,1.57-3.5,3.5v5.5c0,.552.448,1,1,1h5c.552,0,1-.448,1-1v-5.5c0-1.93-1.57-3.5-3.5-3.5Zm1.5,8h-3v-4.5c0-.827.673-1.5,1.5-1.5s1.5.673,1.5,1.5v4.5Z" style="fill:#231f20;"/><path d="m11.5,42c-1.93,0-3.5,1.57-3.5,3.5v5.5c0,.552.448,1,1,1h5c.552,0,1-.448,1-1v-5.5c0-1.93-1.57-3.5-3.5-3.5Zm1.5,8h-3v-4.5c0-.827.673-1.5,1.5-1.5s1.5.673,1.5,1.5v4.5Z" style="fill:#231f20;"/><path d="m32,20c-2.757,0-5,2.243-5,5s2.243,5,5,5,5-2.243,5-5-2.243-5-5-5Zm2.816,4h-1.816v-1.816c.847.302,1.514.969,1.816,1.816Zm-3.816-1.816v1.816h-1.816c.302-.847.969-1.514,1.816-1.816Zm-1.816,3.816h1.816v1.816c-.847-.302-1.514-.969-1.816-1.816Zm3.816,1.816v-1.816h1.816c-.302.847-.969,1.514-1.816,1.816Z" style="fill:#231f20;"/></svg>