<svg id="Flat" xmlns="http://www.w3.org/2000/svg" viewBox="0 0 512 512"><rect x="432" y="392" width="48" height="96" transform="translate(912 880) rotate(180)" style="fill:#f0c6a4"/><rect x="256" y="392" width="48" height="96" style="fill:#f0c6a4"/><path d="M480,328v64H448v96H288V392H256V328a96,96,0,0,1,96-96h32A96,96,0,0,1,480,328Z" style="fill:#f7b030"/><rect x="336" y="224" width="64" height="56" style="fill:#f0c6a4"/><circle cx="384" cy="344" r="8" style="fill:#e37e22"/><circle cx="384" cy="392" r="8" style="fill:#e37e22"/><circle cx="384" cy="440" r="8" style="fill:#e37e22"/><rect x="360" y="280" width="16" height="208" style="fill:#eba72e"/><path d="M336.77,232s-6.708,48,31.23,48a26.574,26.574,0,0,1-24.926,16C298.489,296,286.441,232,336.77,232Z" style="fill:#e37e22"/><path d="M399.23,232s6.708,48-31.23,48a26.574,26.574,0,0,0,24.926,16C437.511,296,449.559,232,399.23,232Z" style="fill:#e37e22"/><circle cx="440" cy="64" r="40" style="fill:#734b39"/><path d="M472,136c0-61.856-48-112-104-112S264,74.144,264,136v24H472Z" style="fill:#8c5237"/><path d="M456,136H432v24h0a24,24,0,1,0,24-24Z" style="fill:#f0c6a4"/><path d="M280,136a24,24,0,1,0,24,24V136Z" style="fill:#f0c6a4"/><path d="M448,352a8,8,0,0,0-8,8v32h16V360A8,8,0,0,0,448,352Z" style="fill:#eba72e"/><path d="M288,352a8,8,0,0,0-8,8v32h16V360A8,8,0,0,0,288,352Z" style="fill:#eba72e"/><path d="M448,136v32a80,80,0,0,1-160,0V136c25.63-1.07,104-7.85,104-48C392,88,399.22,131.7,448,136Z" style="fill:#f7cca9"/><circle cx="336" cy="168" r="8" style="fill:#d49073"/><circle cx="400" cy="168" r="8" style="fill:#d49073"/><path d="M368,216c-18.772,0-28.6-9.285-29.657-10.343a8,8,0,0,1,11.314-11.314c.057.057,6.2,5.657,18.343,5.657s18.287-5.6,18.343-5.657a8,8,0,0,1,11.314,11.314C396.6,206.715,386.772,216,368,216Z" style="fill:#d49073"/><path d="M80,136V112H56a24,24,0,1,0,24,24Z" style="fill:#f0c6a4"/><path d="M256,312V488H32V312a96,96,0,0,1,96-96h32A96,96,0,0,1,256,312Z" style="fill:#dadcde"/><rect x="96" y="216" width="96" height="48" style="fill:#f0c6a4"/><path d="M256,136H208V56h24a24,24,0,0,1,24,24v56Z" style="fill:#eba72e"/><rect x="64" y="440" width="160" height="48" style="fill:#6a7073"/><polygon points="144 263.686 96 280 96 216 144 263.686" style="fill:#c3c6c7"/><polygon points="144 263.686 192 280 192 216 144 263.686" style="fill:#c3c6c7"/><rect x="136" y="264" width="16" height="176" style="fill:#c3c6c7"/><path d="M232,113H208v24h0a24,24,0,1,0,24-24Z" style="fill:#f0c6a4"/><rect x="64" y="40" width="160" height="192" rx="80" style="fill:#f7cca9"/><rect x="136" y="440" width="16" height="48" style="fill:#4f5659"/><circle cx="96" cy="136" r="8" style="fill:#d49073"/><circle cx="192" cy="136" r="8" style="fill:#d49073"/><path d="M144,200c-18.771,0-28.6-9.285-29.657-10.343a8,8,0,0,1,11.314-11.314c.057.057,6.2,5.657,18.343,5.657s18.286-5.6,18.343-5.657a8,8,0,0,1,11.314,11.314C172.6,190.715,162.771,200,144,200Z" style="fill:#d49073"/><rect x="32" y="456" width="32" height="32" style="fill:#c3c6c7"/><rect x="224" y="456" width="32" height="32" style="fill:#c3c6c7"/><path d="M200,168H184a32,32,0,0,1,0-64h16a32,32,0,0,1,0,64Zm-16-48a16,16,0,0,0,0,32h16a16,16,0,0,0,0-32Z" style="fill:#fbe9d8"/><path d="M216,336a8,8,0,0,0-8,8v96h16V344A8,8,0,0,0,216,336Z" style="fill:#c3c6c7"/><path d="M72,336a8,8,0,0,0-8,8v96H80V344A8,8,0,0,0,72,336Z" style="fill:#c3c6c7"/><path d="M96,24A64,64,0,0,0,32,88v48a24.006,24.006,0,0,1,24-24h8c13.255,0,24-17.909,24-40H216s32,0,32-48Z" style="fill:#f7b030"/><path d="M104,168H88a32,32,0,0,1,0-64h16a32,32,0,0,1,0,64ZM88,120a16,16,0,0,0,0,32h16a16,16,0,0,0,0-32Z" style="fill:#fbe9d8"/><path d="M152.517,130.8c-.058-.115-1.484-2.8-8.517-2.8-5.652,0-8.008,1.73-8.463,2.646l-15.269-4.7C121.644,120.766,128.19,112,144,112c15.468,0,22.156,8.626,23.669,13.723Z" style="fill:#fbe9d8"/></svg>