<svg id="Flat" xmlns="http://www.w3.org/2000/svg" viewBox="0 0 512 512"><path d="M88,136V112H64a24,24,0,1,0,24,24Z" style="fill:#f0c6a4"/><path d="M264,312V488H40V312a96,96,0,0,1,96-96h32A96,96,0,0,1,264,312Z" style="fill:#dadcde"/><rect x="104" y="216" width="96" height="48" style="fill:#f0c6a4"/><path d="M264,136H216V56h24a24,24,0,0,1,24,24v56Z" style="fill:#eba72e"/><rect x="72" y="440" width="160" height="48" style="fill:#6a7073"/><polygon points="152 263.686 104 280 104 216 152 263.686" style="fill:#c3c6c7"/><polygon points="152 263.686 200 280 200 216 152 263.686" style="fill:#c3c6c7"/><rect x="144" y="264" width="16" height="176" style="fill:#c3c6c7"/><path d="M240,112H216v24h0a24,24,0,1,0,24-24Z" style="fill:#f0c6a4"/><rect x="72" y="40" width="160" height="192" rx="80" style="fill:#f7cca9"/><rect x="144" y="440" width="16" height="48" style="fill:#4f5659"/><circle cx="104" cy="136" r="8" style="fill:#d49073"/><circle cx="200" cy="136" r="8" style="fill:#d49073"/><path d="M152,200c-18.771,0-28.6-9.285-29.657-10.343a8,8,0,1,1,11.314-11.314c.057.057,6.2,5.657,18.343,5.657s18.286-5.6,18.343-5.657a8,8,0,0,1,11.314,11.314C180.6,190.715,170.771,200,152,200Z" style="fill:#d49073"/><rect x="40" y="456" width="32" height="32" style="fill:#c3c6c7"/><rect x="232" y="456" width="32" height="32" style="fill:#c3c6c7"/><path d="M208,168H192a32,32,0,0,1,0-64h16a32,32,0,0,1,0,64Zm-16-48a16,16,0,0,0,0,32h16a16,16,0,0,0,0-32Z" style="fill:#fbe9d8"/><path d="M224,336a8,8,0,0,0-8,8v96h16V344A8,8,0,0,0,224,336Z" style="fill:#c3c6c7"/><path d="M80,336a8,8,0,0,0-8,8v96H88V344A8,8,0,0,0,80,336Z" style="fill:#c3c6c7"/><path d="M104,24A64,64,0,0,0,40,88v48a24.006,24.006,0,0,1,24-24h8c13.255,0,24-17.909,24-40H224s32,0,32-48Z" style="fill:#f7b030"/><path d="M112,168H96a32,32,0,0,1,0-64h16a32,32,0,0,1,0,64ZM96,120a16,16,0,0,0,0,32h16a16,16,0,0,0,0-32Z" style="fill:#fbe9d8"/><path d="M160.517,130.8c-.058-.115-1.484-2.8-8.517-2.8-5.652,0-8.008,1.73-8.463,2.646l-15.269-4.7C129.644,120.766,136.19,112,152,112c15.468,0,22.156,8.626,23.669,13.723Z" style="fill:#fbe9d8"/><path d="M440,304V280c0-61.856-48-112-104-112S232,218.144,232,280v24c0,24,0,72-32,80,0,0,0,32,32,32H440c32,0,32-32,32-32C440,376,440,328,440,304Z" style="fill:#8c5237"/><path d="M344,168.35V232a8,8,0,0,1-16,0V168.35c2.65-.23,5.31-.35,8-.35S341.35,168.12,344,168.35Z" style="fill:#734b39"/><path d="M448,472v16H224V472c0-.89.01-1.77.04-2.66.02-.84.05-1.67.1-2.51.04-.79.09-1.59.15-2.38.05-.6.1-1.19.17-1.79.01-.21.03-.43.06-.65.04-.41.08-.82.14-1.23.05-.56.12-1.11.2-1.67.09-.69.19-1.39.31-2.08.07-.51.15-1.03.25-1.53.05-.34.11-.67.18-1,.07-.41.14-.82.23-1.22.09-.51.2-1.01.31-1.51.06-.29.12-.57.19-.86.11-.49.22-.98.34-1.46.07-.31.14-.62.22-.92.18-.73.38-1.46.58-2.18.22-.82.46-1.63.71-2.44s.5-1.61.77-2.41.54-1.59.83-2.38c.86-2.36,1.81-4.69,2.86-6.96.68-1.51,1.41-3.01,2.18-4.48.01-.01.01-.02.02-.03.38-.73.77-1.45,1.17-2.17s.79-1.41,1.2-2.1a.567.567,0,0,1,.08-.13c.35-.6.71-1.2,1.08-1.79.1-.16.2-.32.29-.47.4-.64.81-1.26,1.22-1.88.42-.64.85-1.28,1.3-1.91.05-.08.1-.16.15-.23.46-.65.92-1.29,1.39-1.92q.72-.99,1.47-1.95l.03-.03c.46-.59.93-1.18,1.4-1.76.59-.72,1.18-1.43,1.79-2.13q1.515-1.74,3.1-3.41c1.32-1.38,2.67-2.72,4.07-4.02.43-.4.87-.8,1.31-1.2.04-.03.07-.07.11-.1A95.591,95.591,0,0,1,320,376h32a95.591,95.591,0,0,1,64,24.45c.04.03.07.07.11.1.44.4.88.8,1.31,1.2,1.4,1.3,2.75,2.64,4.07,4.02q1.59,1.665,3.1,3.41c.61.7,1.2,1.41,1.79,2.13.47.58.94,1.17,1.4,1.76l.03.03q.75.96,1.47,1.95c.47.63.93,1.27,1.39,1.92.05.07.1.15.15.23.45.63.88,1.27,1.3,1.91.41.62.82,1.24,1.22,1.88.09.15.19.31.29.47.37.59.73,1.19,1.08,1.79a.567.567,0,0,1,.08.13q.615,1.035,1.2,2.1c.4.72.79,1.44,1.17,2.17.01.01.01.02.02.03.77,1.47,1.5,2.97,2.18,4.48,1.05,2.27,2,4.6,2.86,6.96.29.79.56,1.58.83,2.38s.53,1.6.77,2.41.49,1.62.71,2.44c.2.72.4,1.45.58,2.18.08.3.15.61.22.92.12.48.23.97.34,1.46.07.29.13.57.19.86.11.5.22,1,.31,1.51.09.4.16.81.23,1.22.07.33.13.66.18,1,.1.5.18,1.02.25,1.53.12.69.22,1.39.31,2.08.08.56.15,1.11.2,1.67.06.41.1.82.14,1.23.03.22.05.44.06.65.07.6.12,1.19.17,1.79.06.79.11,1.59.15,2.38.05.84.08,1.67.1,2.51C447.99,470.23,448,471.11,448,472Z" style="fill:#fda2c6"/><path d="M256,400.45V488H224V472c0-.89.01-1.77.04-2.66.02-.84.05-1.67.1-2.51.04-.79.09-1.59.15-2.38.05-.6.1-1.19.17-1.79.01-.21.03-.43.06-.65.04-.41.08-.82.14-1.23.05-.56.12-1.11.2-1.67.09-.69.19-1.39.31-2.08.07-.51.15-1.03.25-1.53.05-.34.11-.67.18-1,.07-.41.14-.82.23-1.22.09-.51.2-1.01.31-1.51.06-.29.12-.57.19-.86.11-.49.22-.98.34-1.46.07-.31.14-.62.22-.92.18-.73.38-1.46.58-2.18.22-.82.46-1.63.71-2.44s.5-1.61.77-2.41.54-1.59.83-2.38c.87-2.36,1.82-4.69,2.86-6.96.69-1.51,1.42-3.01,2.18-4.48.01-.01.01-.02.02-.03.38-.73.77-1.45,1.17-2.17s.79-1.41,1.2-2.1a.567.567,0,0,1,.08-.13c.35-.6.71-1.2,1.08-1.79.1-.16.2-.32.29-.47.4-.64.81-1.26,1.22-1.88.42-.64.85-1.28,1.3-1.91.05-.08.1-.16.15-.23.46-.65.92-1.29,1.39-1.92q.72-.99,1.47-1.95l.03-.03c.46-.59.93-1.18,1.4-1.76.59-.72,1.18-1.43,1.79-2.13q1.515-1.74,3.1-3.41c1.32-1.38,2.67-2.72,4.07-4.02.43-.4.87-.8,1.31-1.2C255.93,400.52,255.96,400.48,256,400.45Z" style="fill:#fd84b3"/><path d="M448,472v16H416V400.45c.04.03.07.07.11.1.44.4.88.8,1.31,1.2,1.4,1.3,2.75,2.64,4.07,4.02q1.59,1.665,3.1,3.41c.61.7,1.2,1.41,1.79,2.13.47.58.94,1.17,1.4,1.76l.03.03q.75.96,1.47,1.95c.47.63.93,1.27,1.39,1.92.05.07.1.15.15.23.45.63.88,1.27,1.3,1.91.41.62.82,1.24,1.22,1.88.09.15.19.31.29.47.37.59.73,1.19,1.08,1.79a.567.567,0,0,1,.08.13q.615,1.035,1.2,2.1c.4.72.79,1.44,1.17,2.17.01.01.01.02.02.03.76,1.47,1.49,2.97,2.18,4.48,1.04,2.27,1.99,4.6,2.86,6.96.29.79.56,1.58.83,2.38s.53,1.6.77,2.41.49,1.62.71,2.44c.2.72.4,1.45.58,2.18.08.3.15.61.22.92.12.48.23.97.34,1.46.07.29.13.57.19.86.11.5.22,1,.31,1.51.09.4.16.81.23,1.22.07.33.13.66.18,1,.1.5.18,1.02.25,1.53.12.69.22,1.39.31,2.08.08.56.15,1.11.2,1.67.06.41.1.82.14,1.23.03.22.05.44.06.65.07.6.12,1.19.17,1.79.06.79.11,1.59.15,2.38.05.84.08,1.67.1,2.51C447.99,470.23,448,471.11,448,472Z" style="fill:#fd84b3"/><rect x="328" y="424" width="16" height="64" style="fill:#fd84b3"/><polygon points="304 384 368 384 360 416 336 432 312 416 304 384" style="fill:#f0c6a4"/><path d="M424,280H400v24h0a24,24,0,1,0,24-24Z" style="fill:#f0c6a4"/><path d="M248,280a24,24,0,1,0,24,24V280Z" style="fill:#f0c6a4"/><path d="M416,280v32a80,80,0,0,1-160,0V280a28.419,28.419,0,0,0,24-16c9.02-18.03,18.46-24,30.77-24,18.46,0,25.23-24,25.23-24s5.54,24,24,24c12.31,0,22.98,5.97,32,24A28.419,28.419,0,0,0,416,280Z" style="fill:#f7cca9"/><circle cx="304" cy="312" r="8" style="fill:#d49073"/><circle cx="368" cy="312" r="8" style="fill:#d49073"/><path d="M296,264a7.976,7.976,0,0,1-5.657-2.343l-16-16a8,8,0,0,1,11.314-11.314l16,16A8,8,0,0,1,296,264Z" style="fill:#f7b030"/><path d="M376,264a8,8,0,0,1-5.657-13.657l16-16a8,8,0,0,1,11.314,11.314l-16,16A7.974,7.974,0,0,1,376,264Z" style="fill:#f7b030"/><path d="M336,360c-18.772,0-28.6-9.285-29.657-10.343a8,8,0,0,1,11.314-11.314c.056.057,6.2,5.657,18.343,5.657s18.286-5.6,18.343-5.657a8,8,0,0,1,11.314,11.314C364.6,350.715,354.772,360,336,360Z" style="fill:#d49073"/></svg>