<?xml version="1.0" encoding="UTF-8"?><svg id="Layer_19" xmlns="http://www.w3.org/2000/svg" viewBox="0 0 64 64"><path d="m32,57S3,42.016,3,26c0-16.016,14-24,29-16,15-8,29-.016,29,16s-29,31-29,31Z" style="fill:#ed1c24;"/><path d="m42.106,6.924c9.144.717,15.894,7.957,15.894,19.076,0,13.821-21.58,26.864-27.5,30.182.94.527,1.5.818,1.5.818,0,0,29-14.984,29-31,0-12.303-8.264-19.856-18.894-19.076Z" style="fill:#d80027;"/><path d="m34.57,26.24l5.89,2.45c2.64,1.1,5.54-.84,5.54-3.69v-2c0-2.85-2.9-4.79-5.54-3.69l-5.89,2.45v4.48Z" style="fill:#f072ae;"/><path d="m29.43,26.24l-5.89,2.45c-2.64,1.1-5.54-.84-5.54-3.69v-2c0-2.85,2.9-4.79,5.54-3.69l5.89,2.45v4.48Z" style="fill:#f072ae;"/><path d="m35,24v-1c0-1.105-.895-2-2-2h-2c-1.105,0-2,.895-2,2v2c0,1.105.895,2,2,2h2c1.105,0,2-.895,2-2v-1Z" style="fill:none;"/><path d="m18,25v-2c0-.742.2-1.419.537-2H3.505c-.325,1.563-.505,3.229-.505,5,0,.334.031.667.056,1h15.481c-.337-.581-.537-1.258-.537-2Z" style="fill:#ffcd00;"/><path d="m60.495,21h-15.032c.337.581.537,1.258.537,2v2c0,.742-.2,1.419-.537,2h15.481c.025-.333.056-.666.056-1,0-1.771-.18-3.437-.505-5Z" style="fill:#ffcd00;"/><path d="m33,27c.636,0,1.196-.303,1.563-.766h-.002c-.367.462-.927.766-1.56.766Z" style="fill:none;"/><path d="m31,21c-1.105,0-2,.895-2,2,0-1.1.9-2,2-2Z" style="fill:none;"/><path d="m34.56,21.767h.002c-.366-.464-.926-.767-1.563-.767.633,0,1.193.304,1.56.767Z" style="fill:none;"/><path d="m35,23c0-.468-.168-.893-.437-1.234h-.002c.271.342.44.767.44,1.234Z" style="fill:none;"/><path d="m29,25c0,1.105.895,2,2,2-1.1,0-2-.9-2-2Z" style="fill:none;"/><path d="m34.56,26.233h.002c.27-.34.437-.765.437-1.233,0,.467-.169.892-.44,1.233Z" style="fill:none;"/><rect x="29" y="21" width="6" height="6" rx="2" ry="2" style="fill:#ea348b;"/><path d="m53.08,8.39c-5.91-3.55-13.57-3.37-21.08.48-7.51-3.85-15.17-4.03-21.08-.48C5.25,11.79,2,18.21,2,26c0,16.44,28.33,31.27,29.54,31.89.15.07.3.11.46.11s.31-.04.46-.11c1.21-.62,29.54-15.45,29.54-31.89,0-7.79-3.25-14.21-8.92-17.61Zm6.92,17.61h-13.11c.07-.33.11-.66.11-1v-2c0-.34-.04-.67-.11-1h12.78c.21,1.28.33,2.61.33,4ZM11.95,10.11c2.51-1.51,5.38-2.26,8.43-2.26,3.56,0,7.37,1.02,11.15,3.03.29.16.65.16.94,0,7.02-3.74,14.16-4.03,19.58-.77,3.53,2.11,6,5.58,7.18,9.89h-13.24c-.33-.44-.74-.84-1.22-1.16-1.39-.93-3.15-1.1-4.69-.45l-5.31,2.2c-.5-.37-1.1-.59-1.77-.59h-2c-.67,0-1.27.22-1.77.59l-5.31-2.2c-1.54-.65-3.3-.48-4.69.45-.48.32-.89.72-1.22,1.16H4.77c1.18-4.31,3.65-7.78,7.18-9.89Zm30.05,12.89h-6c0-.25-.04-.48-.09-.71l4.93-2.06c.95-.39,1.98-.29,2.82.28.85.56,1.34,1.47,1.34,2.49v2c0,1.02-.49,1.93-1.34,2.49-.84.57-1.87.67-2.82.28l-4.93-2.06c.05-.23.09-.46.09-.71h6c.55,0,1-.45,1-1s-.45-1-1-1Zm-8,0v2c0,.55-.45,1-1,1h-2c-.55,0-1-.45-1-1v-2c0-.55.45-1,1-1h2c.55,0,1,.45,1,1Zm-12,2h6c0,.25.04.48.09.71l-4.93,2.06c-.95.39-1.98.29-2.82-.28-.85-.56-1.34-1.47-1.34-2.49v-2c0-1.02.49-1.93,1.34-2.49.84-.57,1.87-.67,2.82-.28l4.93,2.06c-.05.23-.09.46-.09.71h-6c-.55,0-1,.45-1,1s.45,1,1,1Zm-17.67-3h12.78c-.07.33-.11.66-.11,1v2c0,.34.04.67.11,1H4c0-1.39.12-2.72.33-4Zm27.67,33.87c-3.5-1.9-25.73-14.45-27.83-27.87h13.84c.33.44.74.84,1.22,1.16.83.56,1.8.84,2.77.84.65,0,1.3-.13,1.92-.39l5.31-2.2c.5.37,1.1.59,1.77.59h2c.67,0,1.27-.22,1.77-.59l5.31,2.2c.62.26,1.27.39,1.92.39.97,0,1.94-.28,2.77-.84.48-.32.89-.72,1.22-1.16h13.84c-2.1,13.42-24.33,25.97-27.83,27.87Z" style="fill:#231f20;"/></svg>