<svg xmlns="http://www.w3.org/2000/svg" viewBox="0 0 57.54 57.54"><defs><style>.cls-1{fill:#ffebf1;}.cls-2{fill:#ffd629;}.cls-3{fill:#ff1a5c;}.cls-4{fill:#55caf3;}.cls-5{fill:#bfbfbf;}.cls-6{fill:#bfb0b5;}.cls-7{fill:#4097b6;}.cls-8{fill:#bf1345;}.cls-9{fill:#bfa01f;}.cls-10{fill:#fff;}.cls-11{fill:#ff34b8;}.cls-12{fill:#ff268a;}.cls-13{fill:#aff;}.cls-14{fill:#80ffff;}.cls-15{fill:#ffff52;}.cls-16{fill:#ffff3e;}</style></defs><title>Icon Color Expand</title><g id="Color"><path class="cls-1" d="M37.38,14.77a8.61,8.61,0,1,1-8.61-8.61,8.58,8.58,0,0,1,8.61,8.61"/><path class="cls-2" d="M32.38,14a3.61,3.61,0,1,1-3.61-3.6A3.61,3.61,0,0,1,32.38,14"/><path class="cls-2" d="M33.77,21.77a8.6,8.6,0,0,1-10,0A5.07,5.07,0,0,1,32.36,19a5.14,5.14,0,0,1,1.41,2.73"/><path class="cls-1" d="M54.94,42.78a8.58,8.58,0,0,1-3.62,7,8.55,8.55,0,0,1-10,0,8.61,8.61,0,1,1,13.61-7"/><path class="cls-3" d="M49.93,42a3.61,3.61,0,1,1-3.6-3.6,3.6,3.6,0,0,1,3.6,3.6"/><path class="cls-3" d="M51.32,49.78a8.55,8.55,0,0,1-10,0,5.07,5.07,0,0,1,10,0"/><path class="cls-1" d="M19.82,42.78a8.57,8.57,0,0,1-3.61,7,8.55,8.55,0,0,1-10,0,8.6,8.6,0,1,1,13.6-7"/><path class="cls-4" d="M14.82,42a3.61,3.61,0,1,1-3.61-3.6A3.6,3.6,0,0,1,14.82,42"/><path class="cls-4" d="M16.21,49.78a8.55,8.55,0,0,1-10,0,5.06,5.06,0,0,1,8.58-2.72,5,5,0,0,1,1.41,2.72"/><path class="cls-5" d="M11.16,34.17h0m0,0h0m0,0h0"/><path class="cls-6" d="M11.28,34.17a9,9,0,0,1,2.44.37,8.83,8.83,0,0,0-2.5,1.23,8.67,8.67,0,0,1,3.31,4.77A3.57,3.57,0,0,1,14.82,42c0,.11,0,.21,0,.31s0,.34,0,.51a8.46,8.46,0,0,1-.8,3.63,5.38,5.38,0,0,1,.78.65,5,5,0,0,1,1.41,2.72h0a8.6,8.6,0,0,0-4.93-15.61m0,0h0m0,0h0"/><path class="cls-7" d="M14.53,40.54a8.92,8.92,0,0,1,.28,1.73c0-.1,0-.2,0-.31a3.57,3.57,0,0,0-.29-1.42"/><path class="cls-7" d="M14,46.41a8.59,8.59,0,0,1-2.81,3.37h0A8.3,8.3,0,0,0,13.72,51a8.33,8.33,0,0,1-2.5.39h0a8.47,8.47,0,0,0,5-1.61,5,5,0,0,0-1.41-2.72,5.38,5.38,0,0,0-.78-.65"/><path class="cls-5" d="M46.27,34.17h0m0,0h0m0,0h0"/><path class="cls-6" d="M46.4,34.17a8.87,8.87,0,0,1,2.43.37,8.83,8.83,0,0,0-2.5,1.23,8.62,8.62,0,0,1,3.31,4.77A3.57,3.57,0,0,1,49.93,42c0,.11,0,.21,0,.31s0,.34,0,.51a8.47,8.47,0,0,1-.81,3.63,5,5,0,0,1,.79.65,5.06,5.06,0,0,1,1.4,2.72h0A8.6,8.6,0,0,0,46.4,34.17m0,0h0m0,0h0"/><path class="cls-8" d="M49.64,40.54a8.22,8.22,0,0,1,.28,1.73c0-.1,0-.2,0-.31a3.57,3.57,0,0,0-.29-1.42"/><path class="cls-8" d="M49.13,46.41a8.66,8.66,0,0,1-2.8,3.37h0A8.42,8.42,0,0,0,48.83,51a8.28,8.28,0,0,1-2.5.39h0a8.45,8.45,0,0,0,5-1.61,5.06,5.06,0,0,0-1.4-2.72,5,5,0,0,0-.79-.65"/><path class="cls-5" d="M28.71,6.16h0m0,0h0m0,0h0"/><path class="cls-6" d="M28.84,6.16a8.51,8.51,0,0,1,2.43.37,8.45,8.45,0,0,0-2.5,1.23,8.65,8.65,0,0,1,3.32,4.77A3.75,3.75,0,0,1,32.38,14a2.83,2.83,0,0,1,0,.3c0,.17,0,.34,0,.52a8.64,8.64,0,0,1-.8,3.63,5.31,5.31,0,0,1,.78.64,5.14,5.14,0,0,1,1.41,2.73h0A8.6,8.6,0,0,0,28.84,6.16m0,0h0m0,0h0"/><path class="cls-9" d="M32.09,12.53a8.22,8.22,0,0,1,.27,1.72,2.83,2.83,0,0,0,0-.3,3.75,3.75,0,0,0-.29-1.42"/><path class="cls-9" d="M31.58,18.4a8.68,8.68,0,0,1-2.81,3.37h0A8.37,8.37,0,0,0,31.27,23a8.6,8.6,0,0,1-2.5.38h0a8.54,8.54,0,0,0,5-1.6A5.14,5.14,0,0,0,32.36,19a5.31,5.31,0,0,0-.78-.64"/><path class="cls-10" d="M46.39,34.17h0m0,0h0m0,0h0"/><path class="cls-10" d="M46.26,34.17a8.6,8.6,0,0,0-4.93,15.61h0a5.12,5.12,0,0,1,2.19-3.37,8.61,8.61,0,0,1-.8-3.63c0-.17,0-.34,0-.51a3,3,0,0,1,0-.31A3.75,3.75,0,0,1,43,40.54a8.68,8.68,0,0,1,3.32-4.77,9,9,0,0,0-2.5-1.23,8.82,8.82,0,0,1,2.43-.37m0,0h0m0,0h0"/><path class="cls-11" d="M43,40.54A3.75,3.75,0,0,0,42.72,42a3,3,0,0,0,0,.31A9,9,0,0,1,43,40.54"/><path class="cls-11" d="M43.52,46.41a5.12,5.12,0,0,0-2.19,3.37,8.48,8.48,0,0,0,5,1.61,8.28,8.28,0,0,1-2.5-.39,8.37,8.37,0,0,0,2.49-1.22h0a8.77,8.77,0,0,1-2.81-3.37"/><path class="cls-10" d="M46.33,34.17h-.07a8.82,8.82,0,0,0-2.43.37,9,9,0,0,1,2.5,1.23,8.83,8.83,0,0,1,2.5-1.23,8.87,8.87,0,0,0-2.43-.37h-.07"/><path class="cls-12" d="M46.33,49.78h0A8.37,8.37,0,0,1,43.83,51a8.28,8.28,0,0,0,2.5.39h0a8.28,8.28,0,0,0,2.5-.39,8.42,8.42,0,0,1-2.5-1.22h0"/><path class="cls-10" d="M11.28,34.17h0m0,0h0m0,0h0"/><path class="cls-10" d="M11.15,34.17A8.6,8.6,0,0,0,6.22,49.78h0a5.09,5.09,0,0,1,2.19-3.37,8.61,8.61,0,0,1-.8-3.63c0-.17,0-.34,0-.51s0-.2,0-.31a3.57,3.57,0,0,1,.29-1.42,8.68,8.68,0,0,1,3.32-4.77,9.1,9.1,0,0,0-2.5-1.23,8.82,8.82,0,0,1,2.43-.37m0,0h0m0,0h0"/><path class="cls-13" d="M7.9,40.54A3.57,3.57,0,0,0,7.61,42c0,.11,0,.21,0,.31a9.05,9.05,0,0,1,.28-1.73"/><path class="cls-13" d="M8.41,46.41a5.09,5.09,0,0,0-2.19,3.37,8.48,8.48,0,0,0,5,1.61A8.23,8.23,0,0,1,8.72,51a8.37,8.37,0,0,0,2.49-1.22h0a8.66,8.66,0,0,1-2.8-3.37"/><path class="cls-10" d="M11.22,34.17h-.07a8.82,8.82,0,0,0-2.43.37,9.1,9.1,0,0,1,2.5,1.23,8.83,8.83,0,0,1,2.5-1.23,9,9,0,0,0-2.44-.37h-.06"/><path class="cls-14" d="M11.21,49.78h0A8.37,8.37,0,0,1,8.72,51a8.23,8.23,0,0,0,2.5.39h0a8.33,8.33,0,0,0,2.5-.39,8.3,8.3,0,0,1-2.5-1.22h0"/><path class="cls-10" d="M28.83,6.16h0m0,0h0m0,0h0"/><path class="cls-10" d="M28.7,6.16a8.6,8.6,0,0,0-4.92,15.61h0A5.05,5.05,0,0,1,26,18.4a8.5,8.5,0,0,1-.81-3.63c0-.17,0-.34,0-.51s0-.2,0-.31a3.57,3.57,0,0,1,.29-1.42,8.58,8.58,0,0,1,3.31-4.77,8.33,8.33,0,0,0-2.5-1.23,8.51,8.51,0,0,1,2.43-.37m0,0h0m0,0h0"/><path class="cls-15" d="M25.46,12.53A3.57,3.57,0,0,0,25.17,14c0,.11,0,.21,0,.31a8.12,8.12,0,0,1,.28-1.73"/><path class="cls-15" d="M26,18.4a5.05,5.05,0,0,0-2.19,3.37,8.51,8.51,0,0,0,5,1.6,8.6,8.6,0,0,1-2.5-.38,8.42,8.42,0,0,0,2.5-1.22h0A8.66,8.66,0,0,1,26,18.4"/><path class="cls-10" d="M28.77,6.16H28.7a8.51,8.51,0,0,0-2.43.37,8.33,8.33,0,0,1,2.5,1.23,8.45,8.45,0,0,1,2.5-1.23,8.51,8.51,0,0,0-2.43-.37h-.07"/><path class="cls-16" d="M28.77,21.77h0A8.42,8.42,0,0,1,26.27,23a8.6,8.6,0,0,0,2.5.38h0a8.6,8.6,0,0,0,2.5-.38,8.37,8.37,0,0,1-2.49-1.22h0"/></g><g id="Line"><path d="M28.77,24.37a9.51,9.51,0,0,1-5.58-1.79,9.61,9.61,0,1,1,11.16,0A9.51,9.51,0,0,1,28.77,24.37Zm0-17.21a7.6,7.6,0,1,0,7.61,7.61A7.62,7.62,0,0,0,28.77,7.16Z"/><path d="M28.77,18.56A4.61,4.61,0,1,1,33.38,14,4.61,4.61,0,0,1,28.77,18.56Zm0-7.21A2.61,2.61,0,1,0,31.38,14,2.6,2.6,0,0,0,28.77,11.35Z"/><path d="M28.77,24.37a9.51,9.51,0,0,1-5.58-1.79,1,1,0,0,1-.4-1,6.07,6.07,0,0,1,12,0,1,1,0,0,1-.4,1A9.51,9.51,0,0,1,28.77,24.37Zm-3.85-3.05a7.7,7.7,0,0,0,7.71,0,4.07,4.07,0,0,0-7.71,0Z"/><path d="M46.33,52.39a9.45,9.45,0,0,1-5.58-1.8,9.61,9.61,0,1,1,11.15,0A9.46,9.46,0,0,1,46.33,52.39Zm0-17.22A7.61,7.61,0,0,0,41.91,49a7.62,7.62,0,0,0,12-6.19A7.62,7.62,0,0,0,46.33,35.17Z"/><path d="M46.33,46.57A4.61,4.61,0,1,1,50.93,42,4.62,4.62,0,0,1,46.33,46.57Zm0-7.21a2.61,2.61,0,1,0,2.6,2.6A2.61,2.61,0,0,0,46.33,39.36Z"/><path d="M46.33,52.39a9.45,9.45,0,0,1-5.58-1.8,1,1,0,0,1-.4-1,6.07,6.07,0,0,1,12,0,1,1,0,0,1-.4,1A9.45,9.45,0,0,1,46.33,52.39Zm-3.86-3.06a7.72,7.72,0,0,0,7.71,0,4.07,4.07,0,0,0-7.71,0Z"/><path d="M11.22,52.39a9.46,9.46,0,0,1-5.59-1.8,9.6,9.6,0,1,1,11.16,0A9.46,9.46,0,0,1,11.22,52.39Zm0-17.22A7.61,7.61,0,0,0,6.8,49a7.7,7.7,0,0,0,8.83,0,7.61,7.61,0,0,0-4.41-13.8Z"/><path d="M11.21,46.57A4.61,4.61,0,1,1,15.82,42,4.62,4.62,0,0,1,11.21,46.57Zm0-7.21A2.61,2.61,0,1,0,13.82,42,2.61,2.61,0,0,0,11.21,39.36Z"/><path d="M11.22,52.39a9.46,9.46,0,0,1-5.59-1.8,1,1,0,0,1-.4-1,6.07,6.07,0,0,1,12,0,1,1,0,0,1-.4,1A9.45,9.45,0,0,1,11.22,52.39ZM7.36,49.33a7.72,7.72,0,0,0,7.71,0,4.08,4.08,0,0,0-1-1.58,4,4,0,0,0-2.87-1.19A4.06,4.06,0,0,0,7.36,49.33Z"/><path d="M11.22,33.3a1,1,0,0,1-1-1V28.94a1,1,0,0,1,1-1H46.33a1,1,0,0,1,1,1v3a1,1,0,0,1-2,0v-2H12.22V32.3A1,1,0,0,1,11.22,33.3Z"/><path d="M28.77,29.94a1,1,0,0,1-1-1V25.09a1,1,0,0,1,2,0v3.85A1,1,0,0,1,28.77,29.94Z"/></g></svg>