<?xml version="1.0" encoding="utf-8"?>
<!-- Generator: Adobe Illustrator 24.0.0, SVG Export Plug-In . SVG Version: 6.00 Build 0)  -->
<svg version="1.1" id="Layer_1" xmlns="http://www.w3.org/2000/svg" xmlns:xlink="http://www.w3.org/1999/xlink" x="0px" y="0px"
	 viewBox="0 0 512 512" enable-background="new 0 0 512 512" xml:space="preserve">
<g>
	<g>
		<path fill="#F06423" d="M440,24c-5.122-5.122-12.07-8-19.314-8H91.314C84.07,16,77.122,18.878,72,24s-8,12.07-8,19.314v425.373
			c0,7.244,2.878,14.191,8,19.314s12.07,8,19.314,8h329.373c7.244,0,14.191-2.878,19.314-8s8-12.07,8-19.314V43.314
			C448,36.07,445.122,29.122,440,24z M384,464H96V48h288V464z"/>
	</g>
	<g>
		<path fill="#FAA019" d="M384,48l24-24v0c5.122,5.122,8,12.07,8,19.314v425.373c0,7.244-2.878,14.191-8,19.314l0,0
			c-5.122,5.122-12.07,8-19.314,8H91.314c-7.244,0-14.191-2.878-19.314-8h0l24-24h288V48z"/>
	</g>
	<g>
		<path fill="#F06423" d="M96,464l-24,24h0c-5.122-5.122-8-12.07-8-19.314V43.314C64,36.07,66.878,29.122,72,24l0,0
			c5.122-5.122,12.07-8,19.314-8h297.373c7.244,0,14.191,2.878,19.314,8v0l-24,24H96V464z"/>
	</g>
	<g>
		<rect x="96" y="48" fill="#A5C3DC" width="288" height="416"/>
	</g>
	<g>
		<g>
			<path fill="#D7E6F0" d="M384,464H96V352c0-35.346,28.654-64,64-64h160c35.346,0,64,28.654,64,64V464z"/>
		</g>
		<g>
			<path fill="#F04B37" d="M192,288L192,288h-32c-35.346,0-64,28.654-64,64v32l0,0C149.02,384,192,341.019,192,288z"/>
		</g>
		<g>
			<path fill="#FAA019" d="M192,288L192,288c0,53.019-42.981,96-96,96h0v16h0c61.856,0,112-50.144,112-112v0H192z"/>
		</g>
		<g>
			<path fill="#F04B37" d="M288,288L288,288h32c35.346,0,64,28.654,64,64v32l0,0C330.98,384,288,341.019,288,288z"/>
		</g>
		<g>
			<path fill="#FAA019" d="M288,288L288,288c0,53.019,42.981,96,96,96h0v16h0c-61.856,0-112-50.144-112-112v0H288z"/>
		</g>
		<g>
			<circle fill="#FAA019" cx="240" cy="176" r="112"/>
		</g>
		<g>
			<path fill="#F0915A" d="M240,336L240,336c-26.51,0-48-21.49-48-48v-32h96v32C288,314.51,266.51,336,240,336z"/>
		</g>
		<path fill="#463C4B" d="M320,288V144c0-26.51-21.49-48-48-48h-64c-26.51,0-48,21.49-48,48v144c-8.836,0-16,7.164-16,16
			s7.164,16,16,16c0,8.836,7.164,16,16,16s16-7.164,16-16v-32h96v32c0,8.836,7.164,16,16,16s16-7.164,16-16c8.836,0,16-7.164,16-16
			S328.836,288,320,288z"/>
		<g>
			<path fill="#FAB991" d="M240,288L240,288c-35.346,0-64-28.654-64-64v-64c0-17.673,14.327-32,32-32h16c8.837,0,16-7.163,16-16v0v0
				c0,8.837,7.163,16,16,16h16c17.673,0,32,14.327,32,32v64C304,259.346,275.346,288,240,288z"/>
		</g>
		<g>
			<path fill="#F0915A" d="M208,192L208,192c-8.837,0-16-7.163-16-16v0h32v0C224,184.837,216.837,192,208,192z"/>
		</g>
		<path fill="#F0915A" d="M272,160h-16c-8.836,0-16,7.163-16,16v64l16-16v-48c0,8.836,7.164,16,16,16s16-7.164,16-16l0,0
			C288,167.163,280.836,160,272,160z"/>
		<g>
			<path fill="#555A6E" d="M296,200v32c0,16.401-9.875,30.489-24,36.662V256c0-8.836-7.164-16-16-16h-32c-8.836,0-16,7.164-16,16
				v12.662c-14.125-6.173-24-20.261-24-36.662v-32c0-4.418-3.582-8-8-8v64c0,26.51,21.49,48,48,48h32c26.51,0,48-21.49,48-48v-64
				C299.582,192,296,195.582,296,200z M248,272v-8h-16v8h-8c-4.418,0-8-3.582-8-8v-8c0-4.418,3.582-8,8-8h32c4.418,0,8,3.582,8,8v8
				c0,4.418-3.582,8-8,8H248z"/>
			<path fill="#FAB991" d="M264,264v-8c0-4.418-3.582-8-8-8h-32c-4.418,0-8,3.582-8,8v8c0,4.418,3.582,8,8,8h8v-8h16v8h8
				C260.418,272,264,268.418,264,264z"/>
		</g>
	</g>
	<g>
		<path fill="#FAB991" d="M156,384L156,384c-6.627,0-12,5.373-12,12v52h24v-52C168,389.373,162.627,384,156,384z"/>
	</g>
	<g>
		<path fill="#F0915A" d="M188,416L188,416c-6.627,0-12,5.373-12,12v36h24v-36C200,421.373,194.627,416,188,416z"/>
	</g>
	<g>
		<path fill="#FAB991" d="M184,464h-56v0c0-8.837,7.163-16,16-16h24C176.837,448,184,455.163,184,464L184,464z"/>
	</g>
	<g>
		<path fill="#F04B37" d="M280,384c0-11.046-8.954-20-20-20s-20,8.954-20,20c0-11.046-8.954-20-20-20s-20,8.954-20,20
			c0,5.16,1.955,9.864,5.164,13.412h0l28.902,31.953c1.464,1.618,3.581,2.635,5.935,2.635s4.471-1.017,5.935-2.635l28.902-31.953h0
			C278.045,393.864,280,389.16,280,384z"/>
	</g>
</g>
</svg>
