<?xml version="1.0" encoding="UTF-8"?><svg id="Layer_32" xmlns="http://www.w3.org/2000/svg" viewBox="0 0 64 64"><path d="m32,37s-.769-.371-2-1.059v25.059h8v-6h-4v-4h4v-4h-4v-11.059c-1.231.688-2,1.059-2,1.059Z" style="fill:#ff9811;"/><path d="m32,47h2v-11.059c-1.231.688-2,1.059-2,1.059v10Z" style="fill:#ee8700;"/><rect x="32" y="51" width="2" height="4" style="fill:#ee8700;"/><rect x="36" y="47" width="2" height="4" style="fill:#ee8700;"/><rect x="36" y="55" width="2" height="6" style="fill:#ee8700;"/><path d="m51,20c-3.52,7.74-12.88,13.64-17,15.94-1.23.69-2,1.06-2,1.06,0,0-.77-.37-2-1.06-4.12-2.3-13.48-8.2-17-15.94-5-11,8-24,19-12,11-12,24,1,19,12Z" style="fill:#d80027;"/><path d="m47.358,18.345c1.166-2.564.945-5.52-.591-7.905-1.304-2.024-3.318-3.233-5.39-3.233-2.109,0-4.333,1.209-6.43,3.497l-2.948,3.216-2.948-3.216c-2.097-2.288-4.32-3.497-6.43-3.497-2.071,0-4.087,1.209-5.391,3.233-1.535,2.385-1.756,5.34-.59,7.905,3.048,6.706,11.67,12.074,15.373,14.138,4.461-2.475,12.516-7.915,15.344-14.138Z" style="fill:#ed1c24;"/><path d="m47.36,4.04c-3.78-2.49-9.71-3.06-15.36,2.52-5.65-5.58-11.58-5.02-15.36-2.52-4.47,2.96-7.58,9.7-4.55,16.37,3.52,7.75,12.47,13.59,16.91,16.12v24.47c0,.55.45,1,1,1h8c.55,0,1-.45,1-1v-6c0-.55-.45-1-1-1h-3v-2h3c.55,0,1-.45,1-1v-4c0-.55-.45-1-1-1h-3v-9.47c4.44-2.53,13.39-8.37,16.91-16.12,3.03-6.67-.08-13.41-4.55-16.37Zm-10.36,43.96v2h-3c-.55,0-1,.45-1,1v4c0,.55.45,1,1,1h3v4h-6v-22.38c.31.15.51.25.57.28.13.07.28.1.43.1s.3-.03.43-.1c.06-.03.26-.13.57-.28v9.38c0,.55.45,1,1,1h3Zm13.09-28.41c-3.93,8.64-15.68,15.05-18.09,16.29-2.41-1.24-14.16-7.65-18.09-16.29-2.57-5.67.06-11.38,3.84-13.88,1.53-1.01,3.17-1.51,4.84-1.51,2.93,0,5.97,1.52,8.67,4.48.38.41,1.1.41,1.48,0,4.25-4.65,9.3-5.76,13.51-2.97,3.78,2.5,6.41,8.21,3.84,13.88Z" style="fill:#231f20;"/><path d="m41.378,6.207c-2.397,0-4.876,1.321-7.167,3.821l-2.211,2.412-2.211-2.412c-2.291-2.5-4.77-3.821-7.167-3.821-2.413,0-4.742,1.38-6.231,3.692-1.72,2.672-1.967,5.984-.659,8.86,3.182,7.001,12.106,12.541,15.796,14.598.151.084.319.126.487.126.167,0,.334-.042.485-.125,2.865-1.589,12.47-7.339,15.769-14.599,1.308-2.876,1.061-6.188-.66-8.86-1.489-2.312-3.818-3.692-6.23-3.692Zm5.07,11.725c-2.351,5.172-8.903,10.257-14.433,13.404-3.759-2.146-11.654-7.225-14.464-13.405-1.024-2.253-.83-4.852.521-6.949,1.119-1.738,2.819-2.775,4.55-2.775,1.822,0,3.79,1.097,5.692,3.172l2.948,3.216c.379.413,1.096.413,1.475,0l2.948-3.216c1.902-2.075,3.87-3.172,5.692-3.172,1.729,0,3.43,1.037,4.549,2.775,1.352,2.098,1.546,4.696.521,6.95Z" style="fill:#231f20;"/></svg>